<svg width="539" height="122" viewBox="0 0 539 122" fill="none" xmlns="http://www.w3.org/2000/svg">
<path d="M233.794 106.267L194.606 73.1369L230.215 42.896C233.395 40.1969 233.755 35.4621 231.017 32.3237C228.282 29.1851 223.482 28.8263 220.301 31.533L177.914 67.5271V10.039C177.914 5.89749 174.511 2.54163 170.316 2.54163C166.119 2.54163 162.717 5.89749 162.717 10.039V111.961C162.717 116.103 166.119 119.458 170.316 119.458C174.511 119.458 177.914 116.103 177.914 111.961V78.7709L223.905 117.655C225.339 118.865 227.096 119.458 228.847 119.458C230.988 119.458 233.116 118.571 234.62 116.84C237.35 113.694 236.981 108.961 233.794 106.267Z" fill="#414041"/>
<path d="M323.056 30.4831C318.932 30.4831 315.592 33.8533 315.592 38.0129V42.0425C307.753 33.3984 296.966 27.9584 285.263 27.9584C262.554 27.9584 244.075 49.0502 244.075 74.9781C244.075 100.907 262.554 122 285.263 122C298.217 122 308.397 116.775 315.592 108.901V112.96C315.592 117.12 318.932 120.49 323.056 120.49C327.178 120.49 330.519 117.12 330.519 112.96V38.0129C330.519 33.8533 327.178 30.4831 323.056 30.4831ZM285.263 106.941C271.027 106.941 259.002 92.3023 259.002 74.9781C259.002 57.6537 271.027 43.018 285.263 43.018C298.803 43.018 313.299 55.8594 313.299 74.9781C313.299 95.962 299.197 106.941 285.263 106.941Z" fill="#414041"/>
<path d="M411.244 105.137C409.576 101.309 405.12 99.5521 401.277 101.222C400.739 101.454 400.076 101.763 399.304 102.121C395.776 103.764 385.034 108.765 380.927 106.146C378.976 104.904 377.859 100.863 377.859 95.0546V43.0501H394.522C398.705 43.0501 402.096 39.6633 402.096 35.4831C402.096 31.3029 398.705 27.9159 394.522 27.9159H377.859V7.56714C377.859 3.38695 374.47 0 370.285 0C366.102 0 362.711 3.38695 362.711 7.56714V27.9159H350.805C346.621 27.9159 343.231 31.3029 343.231 35.4831C343.231 39.6633 346.621 43.0501 350.805 43.0501H362.711V95.0546C362.711 106.629 366.102 114.654 372.785 118.909C376.316 121.155 380.207 122 384.1 122C392.482 122 400.877 118.088 405.707 115.839C406.339 115.544 406.885 115.288 407.327 115.095C411.161 113.428 412.917 108.969 411.244 105.137Z" fill="#414041"/>
<path d="M502.288 122C487.874 122 460.527 111.883 460.187 73.5909C460.052 58.2558 464.703 45.0328 473.288 36.3573C480.37 29.1992 489.739 25.4166 500.381 25.4166C526.708 25.4166 537.58 47.0116 538.976 67.2225C539.168 69.9859 538.2 72.7323 536.321 74.7481C534.467 76.7394 531.854 77.8793 529.147 77.8793H475.52C477.843 105.988 499.689 106.84 502.288 106.84C516.078 106.84 523.655 98.4106 523.729 98.327C526.452 95.1443 531.226 94.7713 534.398 97.4901C537.577 100.209 537.951 104.994 535.234 108.177C534.754 108.742 523.197 122 502.288 122ZM476.301 62.7194H523.227C519.981 43.6041 507.776 40.5766 500.381 40.5766C493.774 40.5766 488.273 42.7479 484.036 47.0289C480.257 50.851 477.621 56.2473 476.301 62.7194Z" fill="#414041"/>
<path d="M434.759 33.0416C430.546 33.0416 427.132 36.4385 427.132 40.6307V111.869C427.132 116.061 430.546 119.458 434.759 119.458C438.973 119.458 442.387 116.061 442.387 111.869V40.6307C442.387 36.4385 438.973 33.0416 434.759 33.0416Z" fill="#414041"/>
<path d="M434.759 22.875C440.376 22.875 444.929 18.3232 444.929 12.7083C444.929 7.09347 440.376 2.54163 434.759 2.54163C429.142 2.54163 424.59 7.09347 424.59 12.7083C424.59 18.3232 429.142 22.875 434.759 22.875Z" fill="#414041"/>
<path d="M111.868 0H10.1698C4.55318 0 0 4.55177 0 10.1667V111.833C0 117.448 4.55318 122 10.1698 122H111.868C117.485 122 122.038 117.448 122.038 111.833V10.1667C122.038 4.55177 117.485 0 111.868 0Z" fill="#FF89BB"/>
<path d="M119.138 3H3.10229V119H119.138V3Z" fill="#FF89BB"/>
<path d="M37.0639 65.2438C41.7531 65.2438 45.5543 60.8104 45.5543 55.3414C45.5543 49.8724 41.7531 45.439 37.0639 45.439C32.3748 45.439 28.5735 49.8724 28.5735 55.3414C28.5735 60.8104 32.3748 65.2438 37.0639 65.2438Z" fill="#414041"/>
<path d="M82.3464 56.756C87.0355 56.756 90.8368 52.3226 90.8368 46.8536C90.8368 41.3846 87.0355 36.9512 82.3464 36.9512C77.6573 36.9512 73.856 41.3846 73.856 46.8536C73.856 52.3226 77.6573 56.756 82.3464 56.756Z" fill="#414041"/>
<path d="M59.8714 99.1951C42.5471 99.1951 30.8795 89.4538 30.3195 88.985C28.2142 87.1935 27.9803 84.0583 29.7949 81.9799C31.6096 79.9085 34.771 79.6705 36.8763 81.448C37.0748 81.616 49.2599 91.5603 65.9462 88.747C83.0366 85.8638 93.003 73.0154 93.1022 72.8894C94.768 70.699 97.9153 70.2511 100.134 71.8887C102.353 73.5262 102.821 76.6194 101.169 78.8168C100.673 79.4746 88.8208 94.9683 67.6333 98.5373C64.9468 98.9992 62.3453 99.1951 59.8714 99.1951Z" fill="#414041"/>
</svg>
