<svg version="1.1" id="Layer_1" xmlns="http://www.w3.org/2000/svg" xmlns:xlink="http://www.w3.org/1999/xlink" x="0px" y="0px"
  width="100%" viewBox="0 0 452 626" enable-background="new 0 0 452 626" xml:space="preserve">
<path fill="#FEFEFE" opacity="1.000000" stroke="none"
  d="
M453.000000,172.000000
	C453.000000,324.000000 453.000000,475.500000 453.000000,627.000000
	C302.333344,627.000000 151.666672,627.000000 1.000000,627.000000
	C1.000000,418.333344 1.000000,209.666672 1.000000,1.000000
	C151.666672,1.000000 302.333344,1.000000 453.000000,1.000000
	C453.000000,57.833332 453.000000,114.666664 453.000000,172.000000
M84.028053,393.322449
	C83.384384,392.190155 82.740715,391.057831 81.674141,389.388641
	C80.802788,387.589966 79.931435,385.791290 78.979706,383.217987
	C78.830223,382.193207 78.680740,381.168457 79.211594,379.870819
	C78.441444,377.938232 77.671303,376.005676 76.812462,374.215210
	C76.812462,374.215210 76.647430,374.186401 76.973671,373.285034
	C76.590546,365.645538 75.618927,357.981232 75.940254,350.371460
	C76.741119,331.405548 82.253365,313.830963 92.617485,297.769623
	C97.025253,290.938904 96.475342,283.876709 91.198715,279.005066
	C78.423065,267.209961 74.109749,251.716476 73.139450,235.444382
	C71.973801,215.896286 78.028862,197.982742 90.090782,182.428818
	C101.315453,167.954514 115.670410,158.157211 134.178162,155.874054
	C140.515533,155.092270 147.056351,155.788574 153.494400,156.050644
	C158.244003,156.243958 162.395172,155.137680 164.161224,150.445236
	C176.456848,117.775826 220.521179,96.778435 254.951309,110.592094
	C273.242065,117.930511 287.870972,129.076309 296.642670,147.071106
	C300.826782,155.654663 302.852386,156.998413 312.043640,155.662018
	C329.400574,153.138351 344.629944,158.319366 358.222992,168.651062
	C374.417389,180.959961 384.232941,197.541626 387.604309,217.457413
	C391.342957,239.542877 387.681763,260.251465 372.873718,277.966705
	C366.868317,285.151154 365.754486,290.128052 370.589783,297.820068
	C380.456207,313.515564 386.038513,330.472168 387.060211,348.944763
	C388.203552,369.616760 384.423615,388.963318 371.701721,405.929657
	C370.582031,407.422852 370.128693,409.415680 369.156036,412.067352
	C369.234100,417.265717 369.312134,422.464111 369.125854,428.423218
	C369.307739,429.397766 369.221893,430.540802 369.712799,431.320862
	C374.792511,439.392426 379.126221,447.784576 380.224609,457.409882
	C381.159149,465.599304 382.514496,473.851654 382.264130,482.032715
	C382.034668,489.531799 379.894287,496.970642 378.621002,504.440308
	C377.993927,508.119110 379.174957,510.172180 383.319550,510.096436
	C390.650452,509.962463 397.988953,510.171967 405.315948,509.955780
	C406.834259,509.911011 408.971466,509.024048 409.670166,507.842957
	C410.891266,505.778839 411.484070,503.228821 411.878296,500.807190
	C416.261047,473.884644 413.699829,447.906311 401.345032,423.216827
	C400.580872,421.689758 400.674408,419.193756 401.362976,417.570099
	C404.909973,409.205811 409.605743,401.243958 412.367218,392.649017
	C417.975433,375.193695 419.173767,357.238953 416.897278,338.910950
	C414.929382,323.067810 410.664154,308.053436 403.543945,293.858185
	C402.309479,291.397034 402.337830,289.947479 403.717407,287.668213
	C409.853485,277.530884 414.585663,266.829285 417.023132,255.099640
	C419.414673,243.590927 419.981537,232.134415 418.800720,220.438522
	C417.038361,202.982010 412.465454,186.307236 402.514008,171.942856
	C395.960114,162.482651 386.950592,154.743759 379.320160,145.990402
	C377.973846,144.445969 377.363831,141.657150 377.507690,139.516495
	C378.297546,127.766296 380.238586,116.036354 380.200470,104.304604
	C380.166199,93.761627 378.195129,83.211807 376.884613,72.689156
	C374.864380,56.468525 369.322693,41.604122 359.447601,28.447065
	C347.885315,13.042048 328.695618,9.548378 313.728760,20.546566
	C302.718689,28.637171 296.367950,40.255608 292.319153,52.873642
	C288.495239,64.790840 285.972961,77.125694 282.786560,89.636307
	C281.728912,89.149498 280.086487,88.476044 278.519012,87.658875
	C267.387054,81.855431 255.631439,77.483955 243.179901,76.411026
	C228.426987,75.139786 213.532364,75.173859 199.477219,81.187950
	C195.445267,82.913185 191.609116,85.096024 187.039963,87.409706
	C185.517532,88.139969 183.995117,88.870232 181.640503,89.273247
	C181.076416,89.449928 180.512344,89.626617 179.750717,89.104050
	C179.286575,88.562805 178.822433,88.021568 178.403229,86.779953
	C178.280228,85.854477 178.157227,84.928993 178.395538,83.604683
	C177.896805,83.088760 177.398056,82.572838 176.685577,81.409119
	C176.630936,80.730492 176.576294,80.051865 176.960648,78.797684
	C176.709839,78.204300 176.459030,77.610916 176.007385,76.414719
	C175.954910,75.995293 175.902451,75.575867 176.264999,74.490211
	C175.849304,73.660492 175.433609,72.830765 174.768875,71.298279
	C174.466293,69.580925 174.163727,67.863571 174.227936,65.526169
	C173.850906,65.019577 173.473877,64.512985 172.854462,63.470425
	C172.785080,63.085686 172.715714,62.700943 173.010712,61.661789
	C172.314041,60.005325 171.617386,58.348862 170.556885,56.037312
	C170.337494,55.061695 170.118103,54.086079 170.186188,52.404636
	C169.183838,49.916843 168.181473,47.429050 167.112350,44.178394
	C163.580078,34.403221 157.690826,26.242882 149.180649,20.384657
	C141.991806,15.436010 134.072617,11.946379 124.898354,14.326028
	C110.770477,17.990557 102.129440,27.828142 95.971077,40.326843
	C90.741524,50.940479 87.607124,62.120296 85.745552,73.876877
	C82.927361,91.674881 80.890259,109.365974 83.908562,127.320709
	C84.783783,132.527115 87.079094,138.393234 85.540413,142.860626
	C83.920807,147.562973 78.674400,151.149567 74.692162,154.881668
	C57.430939,171.058670 47.458839,190.959152 44.085915,214.243805
	C40.320992,240.234619 43.917156,264.894196 58.092773,287.427032
	C59.942730,290.367645 59.926754,292.492737 58.494541,295.553497
	C46.295830,321.623016 41.936687,348.865662 46.780624,377.406982
	C49.218697,391.772522 54.294636,405.131378 61.580219,417.735687
	C62.395935,419.146942 62.137901,421.651398 61.518700,423.332397
	C59.528576,428.735168 56.721302,433.857391 54.976612,439.326263
	C49.929848,455.145660 48.280193,471.459442 49.268887,487.994568
	C49.472752,491.403992 50.940212,494.737854 52.000786,498.037598
	C52.000786,498.037598 52.141964,497.912567 51.786953,498.590393
	C52.425430,500.407654 53.063911,502.224915 53.701969,504.834595
	C53.903355,505.870911 54.104740,506.907196 53.721775,508.035797
	C53.851608,508.542664 53.981441,509.049500 54.111290,509.556396
	C54.425308,509.285828 54.739330,509.015259 55.882069,508.977844
	C63.945946,509.104126 72.009705,509.277893 80.073845,509.297089
	C81.092964,509.299530 82.114014,508.490265 83.835052,507.995300
	C83.619720,506.305725 83.404381,504.616119 82.922226,502.331299
	C82.889275,501.900543 82.856323,501.469818 83.443771,500.751770
	C82.643730,499.158417 81.843697,497.565094 80.906509,496.075348
	C80.906509,496.075348 80.745781,496.136322 81.050255,495.397430
	C81.003296,494.600006 80.956337,493.802582 81.371849,492.650238
	C81.077583,491.692230 80.783318,490.734253 80.320518,489.195831
	C80.291107,488.794952 80.261703,488.394104 80.764938,487.362152
	C80.576195,481.576630 80.387451,475.791077 80.183067,469.395386
	C80.256805,468.995850 80.330544,468.596313 81.007416,467.926117
	C80.996033,466.283783 80.984657,464.641418 80.988174,462.201477
	C80.886604,461.427216 80.785034,460.652924 80.878166,459.454620
	C80.878166,459.454620 81.088028,459.037811 81.792862,458.971375
	C82.090530,456.960693 82.388206,454.950012 82.661469,452.204620
	C82.859047,451.501251 83.056625,450.797913 83.944946,450.005859
	C84.995773,446.779480 86.046600,443.553101 87.184296,439.777924
	C87.391747,439.478699 87.599197,439.179474 88.500618,438.983063
	C89.243309,437.307098 89.986000,435.631134 90.871284,433.308929
	C91.099716,432.935242 91.328140,432.561584 92.156654,432.273102
	C92.402473,431.507263 92.648293,430.741455 93.007027,429.327637
	C93.231262,428.956329 93.455498,428.585022 94.367706,428.216797
	C95.515411,424.498169 97.368416,420.812531 97.544228,417.048492
	C97.648399,414.818268 95.105270,412.464417 93.426132,410.056519
	C93.426132,410.056519 93.105278,409.931610 93.296898,409.263428
	C92.675713,408.682281 92.054527,408.101135 91.289909,406.986969
	C91.041679,406.495941 90.793449,406.004913 90.807411,404.793732
	C89.187851,402.545105 87.568283,400.296448 85.548523,397.551147
	C85.006523,396.387878 84.464523,395.224640 84.028053,393.322449
M238.704788,430.769623
	C225.614304,415.102051 211.716629,400.304688 193.951843,388.365540
	C194.397675,392.088226 194.996338,394.719116 194.981903,397.346619
	C194.880341,415.820526 194.728973,434.294952 194.444962,452.766907
	C194.115402,474.202911 190.144241,494.365631 175.516769,511.381409
	C172.988541,514.322327 172.781799,519.793396 172.680847,524.123291
	C172.594635,527.821350 174.081863,531.590942 175.080978,535.272461
	C177.421707,543.897827 176.378571,551.729858 170.212524,558.583130
	C168.437653,560.555786 166.729553,562.654541 165.373871,564.924194
	C162.840958,569.164673 164.322479,573.284607 169.046417,574.770142
	C171.258484,575.465759 173.765152,575.224609 175.950989,575.393616
	C175.950989,580.094604 175.795319,585.251099 175.985687,590.394775
	C176.310593,599.173157 181.884720,602.863953 189.833038,599.048218
	C194.566330,596.775818 198.751190,593.311340 203.054657,590.205444
	C208.854935,586.019409 214.232239,581.167786 220.322083,577.478271
	C234.627289,568.811646 246.313293,571.031738 256.815735,584.070618
	C260.987000,589.249207 264.495270,594.957397 268.574249,600.215942
	C272.782379,605.640869 277.620483,606.983093 283.359100,603.309326
	C286.582703,601.245544 289.721069,597.563171 290.808685,593.976562
	C292.712677,587.697815 293.627930,580.953857 293.868591,574.365051
	C294.863953,547.117310 288.966675,521.135132 278.468567,496.108521
	C274.422760,486.463593 275.001465,477.135834 279.253845,467.597565
	C281.355743,462.882965 282.522644,457.622284 283.297943,452.485748
	C283.936432,448.255554 283.334015,443.843964 283.354462,439.513092
	C283.379517,434.208038 285.202240,429.833008 289.716736,426.652985
	C295.510742,422.571716 297.029449,416.534576 296.497925,409.903992
	C296.233734,406.608063 295.403839,403.340729 294.640045,400.105255
	C293.097107,393.569122 293.417755,387.245361 296.245911,381.081055
	C297.144135,379.123383 297.960480,377.096710 298.522583,375.022552
	C299.846466,370.137695 297.229156,367.162811 292.208710,367.749664
	C287.076477,368.349579 284.355347,371.765656 282.760803,376.259735
	C281.377350,380.158875 280.210754,384.135010 278.948334,388.077118
	C278.493713,388.077820 278.039124,388.078522 277.584503,388.079254
	C276.526917,384.292572 275.421356,380.518463 274.425690,376.715576
	C273.501343,373.185089 273.035675,369.493347 271.742432,366.111877
	C270.365845,362.512512 266.838562,360.993866 263.557739,362.364105
	C261.530121,363.210938 259.387695,366.264893 259.189301,368.496277
	C258.768158,373.233368 259.487274,378.089325 259.928894,382.879028
	C260.192261,385.735413 260.815979,388.558624 261.277679,391.396729
	C260.828674,391.558228 260.379639,391.719727 259.930634,391.881195
	C257.462006,387.085114 255.028595,382.270416 252.511154,377.500061
	C251.067886,374.765198 249.422287,372.070312 245.619095,373.292999
	C241.971878,374.465485 239.393066,376.840057 239.672379,380.920197
	C239.862701,383.700409 240.338394,386.659271 241.524673,389.136902
	C245.430740,397.294739 249.718521,405.269745 253.747864,413.097748
	C250.644165,414.562683 246.317841,415.800598 243.145325,418.430420
	C241.479568,419.811279 240.915283,423.897827 241.602615,426.251862
	C242.053848,427.797363 246.071442,429.779144 247.730911,429.236908
	C254.664597,426.971069 260.430786,428.599213 266.054321,432.611725
	C267.495361,433.640015 269.588715,433.739441 271.066010,434.735046
	C273.126404,436.123566 276.170074,437.708557 276.539459,439.640381
	C277.648865,445.442352 278.310760,451.497650 277.907013,457.368866
	C277.575287,462.192261 273.777802,465.197876 268.928558,466.225769
	C264.201569,467.227722 262.276031,463.903351 260.005219,460.611725
	C253.199844,450.746674 246.123001,441.068878 238.704788,430.769623
M154.621170,247.411545
	C156.249237,239.272903 153.315323,232.959564 146.511917,228.594666
	C135.823425,221.737289 122.780060,227.430878 118.151245,240.764862
	C115.191765,249.290085 117.906853,257.811768 124.995628,262.246887
	C132.876831,267.177795 141.256744,266.470551 147.597290,259.504211
	C150.507172,256.307129 152.173431,251.978165 154.621170,247.411545
M342.601624,235.803604
	C336.956207,226.722107 326.795410,223.281433 318.256866,227.559906
	C309.340973,232.027466 306.012299,241.199265 309.653748,251.264969
	C312.956024,260.393127 322.273987,266.535522 330.407257,264.945709
	C344.775848,262.137024 350.027557,250.146881 342.601624,235.803604
M234.497452,342.851105
	C253.566727,343.657532 271.469879,340.207092 287.171722,328.559448
	C310.519226,311.240326 316.081909,280.706909 300.605438,256.338226
	C288.073700,236.606140 269.423523,226.137390 247.238831,222.487762
	C222.618088,218.437363 199.244995,222.800171 178.870041,238.376236
	C163.531158,250.102356 153.864807,265.409180 153.691620,284.912689
	C153.411209,316.492493 179.166718,337.251831 207.131546,341.601624
	C215.776138,342.946228 224.701584,342.485168 234.497452,342.851105
z"/>
  <path fill="#040404" opacity="1.000000" stroke="none"
    d="
M81.088028,459.037811
	C81.088028,459.037811 80.878166,459.454620 80.426918,459.758057
	C79.577690,463.537842 79.179718,467.014221 78.755219,470.918884
	C78.786705,476.904144 78.844734,482.461151 78.638916,488.255005
	C79.165306,491.040039 79.955544,493.588196 80.745789,496.136322
	C80.745781,496.136322 80.906509,496.075348 80.820312,496.340576
	C80.764984,497.074768 80.795845,497.543762 80.614609,498.175201
	C80.846085,498.944885 81.289658,499.552124 81.864838,500.383362
	C82.272087,500.751251 82.547729,500.895142 82.823372,501.039062
	C82.856323,501.469818 82.889275,501.900543 82.864288,503.024963
	C82.915634,505.164795 83.024902,506.610931 83.134178,508.057068
	C82.114014,508.490265 81.092964,509.299530 80.073845,509.297089
	C72.009705,509.277893 63.945946,509.104126 55.541321,508.602112
	C54.902428,508.132111 54.604279,508.037811 54.306129,507.943512
	C54.104740,506.907196 53.903355,505.870911 54.018414,504.290222
	C53.603893,501.801422 52.872929,499.856995 52.141964,497.912567
	C52.141964,497.912567 52.000786,498.037598 52.083740,497.622467
	C52.093033,486.219025 51.317581,475.179047 52.121506,464.255310
	C53.150429,450.274414 56.220573,436.570068 63.658657,424.366791
	C65.526611,421.302124 65.433167,419.138184 63.544727,416.253418
	C54.717529,402.768921 49.744976,387.735748 48.103249,371.881927
	C45.307518,344.884155 48.776821,318.757507 61.291477,294.222534
	C62.084080,292.668640 61.991234,289.819855 61.066147,288.364105
	C52.251549,274.493134 46.808193,259.574677 45.248268,243.132401
	C42.852757,217.882736 47.534954,194.193985 61.992100,173.306381
	C68.736389,163.562241 77.874924,155.485794 85.780846,146.523407
	C86.925201,145.226135 88.094681,143.039856 87.813805,141.533173
	C83.612144,118.994171 83.886810,96.443306 87.584114,73.926888
	C89.888298,59.894482 94.077393,46.452618 101.668411,34.208534
	C116.050591,11.010487 142.423965,10.012201 158.193069,32.259693
	C161.068115,36.315899 163.428421,40.736950 166.008514,45.367081
	C167.293350,48.199883 168.596024,50.655174 169.898697,53.110466
	C170.118103,54.086079 170.337494,55.061695 170.516022,56.656281
	C171.198898,58.955570 171.922623,60.635887 172.646332,62.316200
	C172.715714,62.700943 172.785080,63.085686 172.705475,63.822990
	C172.991394,64.832443 173.426270,65.489326 173.861160,66.146217
	C174.163727,67.863571 174.466293,69.580925 174.618439,71.788315
	C174.928665,73.237709 175.389328,74.197075 175.849991,75.156441
	C175.902451,75.575867 175.954910,75.995293 175.846039,76.773323
	C175.963669,77.879028 176.242661,78.626129 176.521637,79.373238
	C176.576294,80.051865 176.630936,80.730492 176.591492,82.007233
	C176.576050,83.044731 176.654709,83.484108 176.576355,84.245636
	C176.527023,85.869171 176.424057,87.236214 176.803345,88.452919
	C177.161438,89.601616 178.111786,91.518448 178.651947,91.468811
	C179.971619,91.347542 181.204727,90.284454 182.472687,89.600502
	C183.995117,88.870232 185.517532,88.139969 187.682526,87.421600
	C199.862427,82.564972 211.695221,78.741302 224.268723,77.799339
	C244.137772,76.310799 262.499237,81.442329 279.876282,90.738556
	C284.705017,93.321793 285.663574,92.699104 286.591431,87.283226
	C288.048218,78.779991 289.343262,70.212616 291.482635,61.871384
	C294.604065,49.701283 299.713043,38.361351 307.894592,28.601389
	C321.889679,11.906353 344.252258,12.365029 357.757874,29.431511
	C365.912079,39.735626 370.523163,51.638264 373.411957,64.135040
	C379.017395,88.383919 380.067780,112.966293 375.620728,137.494095
	C374.579224,143.238708 376.206207,146.487579 380.126709,149.736679
	C400.188812,166.362946 411.718201,187.683655 415.828918,213.379791
	C420.016449,239.556335 415.923798,263.955994 402.109955,286.707825
	C401.013214,288.514221 400.408813,291.716217 401.261047,293.432892
	C407.217255,305.430206 411.527740,317.885925 413.647644,331.131470
	C417.956573,358.055206 416.688477,384.467468 403.418610,408.774658
	C398.867920,417.110443 398.507538,422.926819 402.683075,431.558014
	C412.522888,451.897675 412.483154,474.064392 410.774536,496.141907
	C410.521210,499.415100 409.471771,502.678253 408.392456,505.808807
	C407.997925,506.953125 406.467255,508.473480 405.418396,508.502502
	C397.329834,508.726166 389.232300,508.625641 380.583740,508.625641
	C380.751251,505.841766 380.335083,503.517059 381.094543,501.677795
	C385.174316,491.798065 385.213715,481.471588 384.451660,471.169434
	C383.285370,455.402435 379.373352,440.444733 369.390198,427.662476
	C369.312134,422.464111 369.234100,417.265717 369.591858,411.585693
	C378.529846,401.643585 383.981934,390.485779 386.750061,378.250336
	C391.087433,359.078522 390.324127,339.872467 383.795532,321.287689
	C380.908813,313.070160 376.545563,305.342773 372.531128,297.558655
	C369.061798,290.831512 369.099243,284.694824 373.451782,279.933136
	C385.207153,267.072601 390.345306,251.555588 390.990601,234.540543
	C391.698395,215.876160 386.211761,198.788010 375.462585,183.588516
	C366.633759,171.104446 354.927002,162.243713 340.503571,156.683228
	C329.846130,152.574600 319.002258,152.920975 308.040192,153.393570
	C303.576660,153.585983 300.326080,152.697845 299.000610,147.683426
	C298.257538,144.872162 296.497681,142.276016 294.936188,139.743042
	C279.399597,114.540398 242.774384,96.847366 211.309784,107.230194
	C190.407791,114.127548 173.315369,125.894386 163.943314,146.311646
	C161.179047,152.333710 157.892578,153.781937 152.206726,153.371094
	C142.886841,152.697678 133.562439,152.564117 124.542236,155.585190
	C94.260124,165.727325 76.557159,191.353058 72.041077,220.073395
	C70.376244,230.660965 70.916847,241.205658 73.803696,251.693512
	C76.625580,261.945374 80.586334,271.384705 88.392426,278.884735
	C93.718521,284.001953 94.731979,290.720947 90.756561,296.967590
	C77.313744,318.090393 72.271309,341.206696 74.216591,365.965424
	C74.435547,368.752228 75.809227,371.448273 76.647430,374.186401
	C76.647430,374.186401 76.812462,374.215210 76.697754,374.486023
	C76.660233,375.504852 76.737404,376.252869 76.596680,377.204956
	C76.873169,378.311310 77.367561,379.213654 78.023911,380.252869
	C78.185860,380.389740 78.531258,380.143677 78.531258,380.143677
	C78.680740,381.168457 78.830223,382.193207 78.722519,383.768188
	C79.531815,386.969818 80.598312,389.621246 81.737183,392.632812
	C83.174011,395.357147 84.538460,397.721344 85.972809,400.431213
	C87.543549,402.355896 89.044395,403.934875 90.545227,405.513885
	C90.793449,406.004913 91.041679,406.495941 91.224251,407.604248
	C91.807487,408.791534 92.456383,409.361572 93.105286,409.931610
	C93.105278,409.931610 93.426132,410.056519 93.553352,410.530670
	C96.694374,416.741272 95.423264,422.477478 93.679718,428.213684
	C93.455498,428.585022 93.231262,428.956329 92.626465,429.662476
	C92.016121,430.727539 91.786346,431.457703 91.556564,432.187897
	C91.328140,432.561584 91.099716,432.935242 90.458389,433.668884
	C89.299217,435.645966 88.552940,437.263123 87.806664,438.880249
	C87.599197,439.179474 87.391747,439.478699 86.830666,440.128723
	C85.880585,441.595398 85.284126,442.711304 84.389313,443.909637
	C83.728355,445.328064 83.365753,446.664062 82.957626,448.363831
	C83.026131,449.183258 83.140167,449.638916 83.254196,450.094543
	C83.056625,450.797913 82.859047,451.501251 82.415634,452.566895
	C81.983971,453.217468 81.798141,453.505768 81.344223,453.843994
	C81.031883,454.595093 80.987633,455.296234 80.905113,456.385132
	C80.940575,457.527832 81.014305,458.282837 81.088028,459.037811
M346.639221,70.840302
	C344.635559,65.215714 343.129150,59.339684 340.456360,54.053432
	C338.622345,50.426132 335.167023,47.618595 332.436462,44.444618
	C329.659210,47.612175 326.095215,50.377460 324.235626,54.014240
	C314.115509,73.805855 312.400696,95.373947 312.214203,117.085426
	C312.183044,120.713676 313.497894,125.205994 318.707092,125.839920
	C328.550537,127.037773 338.395508,128.223099 348.769745,129.477722
	C349.020416,128.056488 349.429626,126.150459 349.685059,124.224052
	C352.032440,106.522598 350.351135,89.039009 346.639221,70.840302
M113.492012,89.731453
	C111.794785,103.116592 111.746040,116.437302 114.398529,129.551453
	C123.742180,128.277740 132.434082,126.908836 141.171570,125.959351
	C148.311752,125.183441 151.529449,122.364624 150.970123,115.314209
	C149.971970,102.732277 149.011307,90.101509 146.990555,77.660789
	C145.313797,67.337700 141.982315,57.297325 135.651627,48.651859
	C131.469238,42.940208 129.319321,43.092106 125.336067,49.049961
	C124.967010,49.601967 124.647690,50.188084 124.319611,50.766495
	C117.620155,62.578022 114.967781,75.529541 113.492012,89.731453
z"/>
  <path fill="#090808" opacity="1.000000" stroke="none"
    d="
M238.928452,431.043823
	C246.123001,441.068878 253.199844,450.746674 260.005219,460.611725
	C262.276031,463.903351 264.201569,467.227722 268.928558,466.225769
	C273.777802,465.197876 277.575287,462.192261 277.907013,457.368866
	C278.310760,451.497650 277.648865,445.442352 276.539459,439.640381
	C276.170074,437.708557 273.126404,436.123566 271.066010,434.735046
	C269.588715,433.739441 267.495361,433.640015 266.054321,432.611725
	C260.430786,428.599213 254.664597,426.971069 247.730911,429.236908
	C246.071442,429.779144 242.053848,427.797363 241.602615,426.251862
	C240.915283,423.897827 241.479568,419.811279 243.145325,418.430420
	C246.317841,415.800598 250.644165,414.562683 253.747864,413.097748
	C249.718521,405.269745 245.430740,397.294739 241.524673,389.136902
	C240.338394,386.659271 239.862701,383.700409 239.672379,380.920197
	C239.393066,376.840057 241.971878,374.465485 245.619095,373.292999
	C249.422287,372.070312 251.067886,374.765198 252.511154,377.500061
	C255.028595,382.270416 257.462006,387.085114 259.930634,391.881195
	C260.379639,391.719727 260.828674,391.558228 261.277679,391.396729
	C260.815979,388.558624 260.192261,385.735413 259.928894,382.879028
	C259.487274,378.089325 258.768158,373.233368 259.189301,368.496277
	C259.387695,366.264893 261.530121,363.210938 263.557739,362.364105
	C266.838562,360.993866 270.365845,362.512512 271.742432,366.111877
	C273.035675,369.493347 273.501343,373.185089 274.425690,376.715576
	C275.421356,380.518463 276.526917,384.292572 277.584503,388.079254
	C278.039124,388.078522 278.493713,388.077820 278.948334,388.077118
	C280.210754,384.135010 281.377350,380.158875 282.760803,376.259735
	C284.355347,371.765656 287.076477,368.349579 292.208710,367.749664
	C297.229156,367.162811 299.846466,370.137695 298.522583,375.022552
	C297.960480,377.096710 297.144135,379.123383 296.245911,381.081055
	C293.417755,387.245361 293.097107,393.569122 294.640045,400.105255
	C295.403839,403.340729 296.233734,406.608063 296.497925,409.903992
	C297.029449,416.534576 295.510742,422.571716 289.716736,426.652985
	C285.202240,429.833008 283.379517,434.208038 283.354462,439.513092
	C283.334015,443.843964 283.936432,448.255554 283.297943,452.485748
	C282.522644,457.622284 281.355743,462.882965 279.253845,467.597565
	C275.001465,477.135834 274.422760,486.463593 278.468567,496.108521
	C288.966675,521.135132 294.863953,547.117310 293.868591,574.365051
	C293.627930,580.953857 292.712677,587.697815 290.808685,593.976562
	C289.721069,597.563171 286.582703,601.245544 283.359100,603.309326
	C277.620483,606.983093 272.782379,605.640869 268.574249,600.215942
	C264.495270,594.957397 260.987000,589.249207 256.815735,584.070618
	C246.313293,571.031738 234.627289,568.811646 220.322083,577.478271
	C214.232239,581.167786 208.854935,586.019409 203.054657,590.205444
	C198.751190,593.311340 194.566330,596.775818 189.833038,599.048218
	C181.884720,602.863953 176.310593,599.173157 175.985687,590.394775
	C175.795319,585.251099 175.950989,580.094604 175.950989,575.393616
	C173.765152,575.224609 171.258484,575.465759 169.046417,574.770142
	C164.322479,573.284607 162.840958,569.164673 165.373871,564.924194
	C166.729553,562.654541 168.437653,560.555786 170.212524,558.583130
	C176.378571,551.729858 177.421707,543.897827 175.080978,535.272461
	C174.081863,531.590942 172.594635,527.821350 172.680847,524.123291
	C172.781799,519.793396 172.988541,514.322327 175.516769,511.381409
	C190.144241,494.365631 194.115402,474.202911 194.444962,452.766907
	C194.728973,434.294952 194.880341,415.820526 194.981903,397.346619
	C194.996338,394.719116 194.397675,392.088226 193.951843,388.365540
	C211.716629,400.304688 225.614304,415.102051 238.928452,431.043823
M228.385803,451.264862
	C227.576050,451.480164 226.766312,451.695465 225.209366,451.841797
	C222.756439,452.743103 220.303528,453.644409 217.170731,454.740448
	C214.683762,456.731873 212.196808,458.723328 209.074677,461.086914
	C206.395721,465.039581 204.903061,469.203491 206.694351,474.645966
	C207.032074,475.455811 207.369797,476.265686 207.787186,477.773773
	C209.189240,479.510315 210.591293,481.246826 212.329575,483.592102
	C215.219910,484.719025 218.110245,485.845917 221.635101,487.394684
	C233.391190,488.519379 243.870499,481.443024 246.378113,470.686554
	C248.007095,463.699005 245.677322,457.613983 239.541641,453.452820
	C237.706635,452.909149 235.871628,452.365509 233.414749,451.425751
	C231.940811,451.435333 230.466873,451.444916 228.385803,451.264862
M284.566986,538.144775
	C278.475800,509.657806 267.102570,483.400177 251.528656,458.795929
	C253.722275,472.870728 249.048874,483.612915 236.402206,489.670532
	C223.666412,495.770905 212.155731,493.309204 202.572876,480.632416
	C200.825073,483.607727 198.779495,485.716156 198.288864,488.139435
	C193.799515,510.313446 189.164429,532.473022 185.458435,554.784119
	C183.615967,565.876221 183.302872,577.265198 182.940918,588.540527
	C182.783112,593.456177 185.634399,594.863464 189.859650,592.215210
	C194.192657,589.499329 197.933914,585.853333 202.021713,582.728943
	C207.955765,578.193481 213.564606,573.035156 220.032074,569.436279
	C233.242828,562.085083 246.359818,564.229187 256.986389,574.989197
	C261.165375,579.220703 264.537445,584.255859 268.212250,588.975464
	C269.948364,591.205139 271.362610,593.702515 273.221008,595.816284
	C276.735901,599.814148 282.047241,598.916016 283.939178,593.945984
	C284.933655,591.333618 285.557251,588.500061 285.850372,585.713928
	C287.493530,570.096130 287.983032,554.486694 284.566986,538.144775
M177.712799,523.615601
	C178.496674,527.143372 179.280563,530.671082 180.064453,534.198853
	C180.681747,534.152527 181.299042,534.106262 181.916336,534.059998
	C183.261337,526.415588 184.606323,518.771179 185.951324,511.126770
	C185.390701,510.972260 184.830093,510.817749 184.269485,510.663269
	C180.384155,513.683533 178.762192,518.027527 177.712799,523.615601
z"/>
  <path fill="#9C9C9C" opacity="1.000000" stroke="none"
    d="
M369.258026,428.042847
	C379.373352,440.444733 383.285370,455.402435 384.451660,471.169434
	C385.213715,481.471588 385.174316,491.798065 381.094543,501.677795
	C380.335083,503.517059 380.751251,505.841766 380.583740,508.625641
	C389.232300,508.625641 397.329834,508.726166 405.418396,508.502502
	C406.467255,508.473480 407.997925,506.953125 408.392456,505.808807
	C409.471771,502.678253 410.521210,499.415100 410.774536,496.141907
	C412.483154,474.064392 412.522888,451.897675 402.683075,431.558014
	C398.507538,422.926819 398.867920,417.110443 403.418610,408.774658
	C416.688477,384.467468 417.956573,358.055206 413.647644,331.131470
	C411.527740,317.885925 407.217255,305.430206 401.261047,293.432892
	C400.408813,291.716217 401.013214,288.514221 402.109955,286.707825
	C415.923798,263.955994 420.016449,239.556335 415.828918,213.379791
	C411.718201,187.683655 400.188812,166.362946 380.126709,149.736679
	C376.206207,146.487579 374.579224,143.238708 375.620728,137.494095
	C380.067780,112.966293 379.017395,88.383919 373.411957,64.135040
	C370.523163,51.638264 365.912079,39.735626 357.757874,29.431511
	C344.252258,12.365029 321.889679,11.906353 307.894592,28.601389
	C299.713043,38.361351 294.604065,49.701283 291.482635,61.871384
	C289.343262,70.212616 288.048218,78.779991 286.591431,87.283226
	C285.663574,92.699104 284.705017,93.321793 279.876282,90.738556
	C262.499237,81.442329 244.137772,76.310799 224.268723,77.799339
	C211.695221,78.741302 199.862427,82.564972 188.004135,87.251266
	C191.609116,85.096024 195.445267,82.913185 199.477219,81.187950
	C213.532364,75.173859 228.426987,75.139786 243.179901,76.411026
	C255.631439,77.483955 267.387054,81.855431 278.519012,87.658875
	C280.086487,88.476044 281.728912,89.149498 282.786560,89.636307
	C285.972961,77.125694 288.495239,64.790840 292.319153,52.873642
	C296.367950,40.255608 302.718689,28.637171 313.728760,20.546566
	C328.695618,9.548378 347.885315,13.042048 359.447601,28.447065
	C369.322693,41.604122 374.864380,56.468525 376.884613,72.689156
	C378.195129,83.211807 380.166199,93.761627 380.200470,104.304604
	C380.238586,116.036354 378.297546,127.766296 377.507690,139.516495
	C377.363831,141.657150 377.973846,144.445969 379.320160,145.990402
	C386.950592,154.743759 395.960114,162.482651 402.514008,171.942856
	C412.465454,186.307236 417.038361,202.982010 418.800720,220.438522
	C419.981537,232.134415 419.414673,243.590927 417.023132,255.099640
	C414.585663,266.829285 409.853485,277.530884 403.717407,287.668213
	C402.337830,289.947479 402.309479,291.397034 403.543945,293.858185
	C410.664154,308.053436 414.929382,323.067810 416.897278,338.910950
	C419.173767,357.238953 417.975433,375.193695 412.367218,392.649017
	C409.605743,401.243958 404.909973,409.205811 401.362976,417.570099
	C400.674408,419.193756 400.580872,421.689758 401.345032,423.216827
	C413.699829,447.906311 416.261047,473.884644 411.878296,500.807190
	C411.484070,503.228821 410.891266,505.778839 409.670166,507.842957
	C408.971466,509.024048 406.834259,509.911011 405.315948,509.955780
	C397.988953,510.171967 390.650452,509.962463 383.319550,510.096436
	C379.174957,510.172180 377.993927,508.119110 378.621002,504.440308
	C379.894287,496.970642 382.034668,489.531799 382.264130,482.032715
	C382.514496,473.851654 381.159149,465.599304 380.224609,457.409882
	C379.126221,447.784576 374.792511,439.392426 369.712799,431.320862
	C369.221893,430.540802 369.307739,429.397766 369.258026,428.042847
z"/>
  <path fill="#626262" opacity="1.000000" stroke="none"
    d="
M76.810547,373.735718
	C75.809227,371.448273 74.435547,368.752228 74.216591,365.965424
	C72.271309,341.206696 77.313744,318.090393 90.756561,296.967590
	C94.731979,290.720947 93.718521,284.001953 88.392426,278.884735
	C80.586334,271.384705 76.625580,261.945374 73.803696,251.693512
	C70.916847,241.205658 70.376244,230.660965 72.041077,220.073395
	C76.557159,191.353058 94.260124,165.727325 124.542236,155.585190
	C133.562439,152.564117 142.886841,152.697678 152.206726,153.371094
	C157.892578,153.781937 161.179047,152.333710 163.943314,146.311646
	C173.315369,125.894386 190.407791,114.127548 211.309784,107.230194
	C242.774384,96.847366 279.399597,114.540398 294.936188,139.743042
	C296.497681,142.276016 298.257538,144.872162 299.000610,147.683426
	C300.326080,152.697845 303.576660,153.585983 308.040192,153.393570
	C319.002258,152.920975 329.846130,152.574600 340.503571,156.683228
	C354.927002,162.243713 366.633759,171.104446 375.462585,183.588516
	C386.211761,198.788010 391.698395,215.876160 390.990601,234.540543
	C390.345306,251.555588 385.207153,267.072601 373.451782,279.933136
	C369.099243,284.694824 369.061798,290.831512 372.531128,297.558655
	C376.545563,305.342773 380.908813,313.070160 383.795532,321.287689
	C390.324127,339.872467 391.087433,359.078522 386.750061,378.250336
	C383.981934,390.485779 378.529846,401.643585 369.696777,411.140228
	C370.128693,409.415680 370.582031,407.422852 371.701721,405.929657
	C384.423615,388.963318 388.203552,369.616760 387.060211,348.944763
	C386.038513,330.472168 380.456207,313.515564 370.589783,297.820068
	C365.754486,290.128052 366.868317,285.151154 372.873718,277.966705
	C387.681763,260.251465 391.342957,239.542877 387.604309,217.457413
	C384.232941,197.541626 374.417389,180.959961 358.222992,168.651062
	C344.629944,158.319366 329.400574,153.138351 312.043640,155.662018
	C302.852386,156.998413 300.826782,155.654663 296.642670,147.071106
	C287.870972,129.076309 273.242065,117.930511 254.951309,110.592094
	C220.521179,96.778435 176.456848,117.775826 164.161224,150.445236
	C162.395172,155.137680 158.244003,156.243958 153.494400,156.050644
	C147.056351,155.788574 140.515533,155.092270 134.178162,155.874054
	C115.670410,158.157211 101.315453,167.954514 90.090782,182.428818
	C78.028862,197.982742 71.973801,215.896286 73.139450,235.444382
	C74.109749,251.716476 78.423065,267.209961 91.198715,279.005066
	C96.475342,283.876709 97.025253,290.938904 92.617485,297.769623
	C82.253365,313.830963 76.741119,331.405548 75.940254,350.371460
	C75.618927,357.981232 76.590546,365.645538 76.810547,373.735718
z"/>
  <path fill="#ACACAC" opacity="1.000000" stroke="none"
    d="
M166.026367,44.989571
	C163.428421,40.736950 161.068115,36.315899 158.193069,32.259693
	C142.423965,10.012201 116.050591,11.010487 101.668411,34.208534
	C94.077393,46.452618 89.888298,59.894482 87.584114,73.926888
	C83.886810,96.443306 83.612144,118.994171 87.813805,141.533173
	C88.094681,143.039856 86.925201,145.226135 85.780846,146.523407
	C77.874924,155.485794 68.736389,163.562241 61.992100,173.306381
	C47.534954,194.193985 42.852757,217.882736 45.248268,243.132401
	C46.808193,259.574677 52.251549,274.493134 61.066147,288.364105
	C61.991234,289.819855 62.084080,292.668640 61.291477,294.222534
	C48.776821,318.757507 45.307518,344.884155 48.103249,371.881927
	C49.744976,387.735748 54.717529,402.768921 63.544727,416.253418
	C65.433167,419.138184 65.526611,421.302124 63.658657,424.366791
	C56.220573,436.570068 53.150429,450.274414 52.121506,464.255310
	C51.317581,475.179047 52.093033,486.219025 51.995979,497.656921
	C50.940212,494.737854 49.472752,491.403992 49.268887,487.994568
	C48.280193,471.459442 49.929848,455.145660 54.976612,439.326263
	C56.721302,433.857391 59.528576,428.735168 61.518700,423.332397
	C62.137901,421.651398 62.395935,419.146942 61.580219,417.735687
	C54.294636,405.131378 49.218697,391.772522 46.780624,377.406982
	C41.936687,348.865662 46.295830,321.623016 58.494541,295.553497
	C59.926754,292.492737 59.942730,290.367645 58.092773,287.427032
	C43.917156,264.894196 40.320992,240.234619 44.085915,214.243805
	C47.458839,190.959152 57.430939,171.058670 74.692162,154.881668
	C78.674400,151.149567 83.920807,147.562973 85.540413,142.860626
	C87.079094,138.393234 84.783783,132.527115 83.908562,127.320709
	C80.890259,109.365974 82.927361,91.674881 85.745552,73.876877
	C87.607124,62.120296 90.741524,50.940479 95.971077,40.326843
	C102.129440,27.828142 110.770477,17.990557 124.898354,14.326028
	C134.072617,11.946379 141.991806,15.436010 149.180649,20.384657
	C157.690826,26.242882 163.580078,34.403221 166.857208,44.575039
	C166.410172,44.977642 166.218277,44.983604 166.026367,44.989571
z"/>
  <path fill="#0D0D0D" opacity="1.000000" stroke="none"
    d="
M154.512405,247.787018
	C152.173431,251.978165 150.507172,256.307129 147.597290,259.504211
	C141.256744,266.470551 132.876831,267.177795 124.995628,262.246887
	C117.906853,257.811768 115.191765,249.290085 118.151245,240.764862
	C122.780060,227.430878 135.823425,221.737289 146.511917,228.594666
	C153.315323,232.959564 156.249237,239.272903 154.512405,247.787018
z"/>
  <path fill="#0D0D0D" opacity="1.000000" stroke="none"
    d="
M342.733887,236.152222
	C350.027557,250.146881 344.775848,262.137024 330.407257,264.945709
	C322.273987,266.535522 312.956024,260.393127 309.653748,251.264969
	C306.012299,241.199265 309.340973,232.027466 318.256866,227.559906
	C326.795410,223.281433 336.956207,226.722107 342.733887,236.152222
z"/>
  <path fill="#939393" opacity="1.000000" stroke="none"
    d="
M233.997955,342.850952
	C224.701584,342.485168 215.776138,342.946228 207.131546,341.601624
	C179.166718,337.251831 153.411209,316.492493 153.691620,284.912689
	C153.864807,265.409180 163.531158,250.102356 178.870041,238.376236
	C199.244995,222.800171 222.618088,218.437363 247.238831,222.487762
	C269.423523,226.137390 288.073700,236.606140 300.605438,256.338226
	C316.081909,280.706909 310.519226,311.240326 287.171722,328.559448
	C271.469879,340.207092 253.566727,343.657532 233.997955,342.850952
M217.649796,340.900574
	C224.975922,340.903290 232.309677,340.693848 239.626434,340.957001
	C251.496933,341.383942 262.651642,338.810181 273.593201,334.334290
	C307.750580,320.361511 318.189636,278.916809 294.385864,250.807678
	C281.701477,235.829117 265.409271,227.414459 246.041260,224.447693
	C217.175339,220.026001 191.864212,226.942841 171.237839,248.000687
	C153.900864,265.700348 149.830078,293.490631 164.846436,314.248718
	C177.571472,331.839386 195.669067,339.293976 217.649796,340.900574
z"/>
  <path fill="#B6B6B6" opacity="1.000000" stroke="none"
    d="
M78.902763,488.018127
	C78.844734,482.461151 78.786705,476.904144 78.993301,470.829102
	C79.571526,470.209229 79.885117,470.107391 80.198715,470.005554
	C80.387451,475.791077 80.576195,481.576630 80.166168,487.682251
	C79.345848,488.007599 79.124306,488.012848 78.902763,488.018127
z"/>
  <path fill="#B6B6B6" opacity="1.000000" stroke="none"
    d="
M94.023712,428.215240
	C95.423264,422.477478 96.694374,416.741272 93.716537,410.585480
	C95.105270,412.464417 97.648399,414.818268 97.544228,417.048492
	C97.368416,420.812531 95.515411,424.498169 94.023712,428.215240
z"/>
  <path fill="#9C9C9C" opacity="1.000000" stroke="none"
    d="
M182.056595,89.436874
	C181.204727,90.284454 179.971619,91.347542 178.651947,91.468811
	C178.111786,91.518448 177.161438,89.601616 176.803345,88.452919
	C176.424057,87.236214 176.527023,85.869171 176.901520,84.266769
	C177.600555,83.978340 177.817383,83.990929 178.034225,84.003517
	C178.157227,84.928993 178.280228,85.854477 178.301117,87.440895
	C178.782089,88.668991 179.365173,89.236145 179.948257,89.803299
	C180.512344,89.626617 181.076416,89.449928 182.056595,89.436874
z"/>
  <path fill="#B6B6B6" opacity="1.000000" stroke="none"
    d="
M83.599571,450.050201
	C83.140167,449.638916 83.026131,449.183258 83.255493,448.196777
	C83.961807,446.386353 84.324730,445.106750 84.687653,443.827179
	C85.284126,442.711304 85.880585,441.595398 86.787231,440.403107
	C86.046600,443.553101 84.995773,446.779480 83.599571,450.050201
z"/>
  <path fill="#505050" opacity="1.000000" stroke="none"
    d="
M80.190887,469.700470
	C79.885117,470.107391 79.571526,470.209229 79.019836,470.400818
	C79.179718,467.014221 79.577690,463.537842 80.329567,459.970062
	C80.785034,460.652924 80.886604,461.427216 80.740387,462.898987
	C80.463165,465.129944 80.433723,466.663361 80.404282,468.196777
	C80.330544,468.596313 80.256805,468.995850 80.190887,469.700470
z"/>
  <path fill="#B6B6B6" opacity="1.000000" stroke="none"
    d="
M90.676323,405.153809
	C89.044395,403.934875 87.543549,402.355896 86.039352,400.094543
	C86.006905,398.957367 85.977814,398.502594 85.948715,398.047821
	C87.568283,400.296448 89.187851,402.545105 90.676323,405.153809
z"/>
  <path fill="#626262" opacity="1.000000" stroke="none"
    d="
M81.664810,392.272705
	C80.598312,389.621246 79.531815,386.969818 78.762703,384.155487
	C79.931435,385.791290 80.802788,387.589966 81.833023,389.974182
	C82.073318,390.979858 82.154747,391.399994 82.093407,391.933350
	C81.950645,392.046600 81.664810,392.272705 81.664810,392.272705
z"/>
  <path fill="#505050" opacity="1.000000" stroke="none"
    d="
M78.638916,488.255005
	C79.124306,488.012848 79.345848,488.007599 79.899841,487.997772
	C80.261703,488.394104 80.291107,488.794952 80.237816,489.803101
	C80.406540,491.275299 80.657959,492.140228 80.909378,493.005157
	C80.956337,493.802582 81.003296,494.600006 80.898026,495.766876
	C79.955544,493.588196 79.165306,491.040039 78.638916,488.255005
z"/>
  <path fill="#9C9C9C" opacity="1.000000" stroke="none"
    d="
M166.008514,45.367081
	C166.218277,44.983604 166.410172,44.977642 166.890594,44.956467
	C168.181473,47.429050 169.183838,49.916843 170.042450,52.757553
	C168.596024,50.655174 167.293350,48.199883 166.008514,45.367081
z"/>
  <path fill="#626262" opacity="1.000000" stroke="none"
    d="
M85.748627,397.799500
	C85.977814,398.502594 86.006905,398.957367 85.969452,399.748840
	C84.538460,397.721344 83.174011,395.357147 81.737183,392.632812
	C81.664810,392.272705 81.950645,392.046600 82.271973,392.159119
	C83.036377,392.868225 83.479454,393.464813 83.922531,394.061371
	C84.464523,395.224640 85.006523,396.387878 85.748627,397.799500
z"/>
  <path fill="#B6B6B6" opacity="1.000000" stroke="none"
    d="
M81.440445,459.004578
	C81.014305,458.282837 80.940575,457.527832 81.176331,456.203644
	C81.527969,455.020966 81.570137,454.407532 81.612305,453.794067
	C81.798141,453.505768 81.983971,453.217468 82.427841,452.934265
	C82.388206,454.950012 82.090530,456.960693 81.440445,459.004578
z"/>
  <path fill="#B6B6B6" opacity="1.000000" stroke="none"
    d="
M76.814575,377.000916
	C76.737404,376.252869 76.660233,375.504852 76.742111,374.414948
	C77.671303,376.005676 78.441444,377.938232 78.871429,380.007263
	C78.531258,380.143677 78.185860,380.389740 78.109619,379.901398
	C77.627113,378.609009 77.220848,377.804962 76.814575,377.000916
z"/>
  <path fill="#505050" opacity="1.000000" stroke="none"
    d="
M51.964458,498.251465
	C52.872929,499.856995 53.603893,501.801422 54.018623,503.894012
	C53.063911,502.224915 52.425430,500.407654 51.964458,498.251465
z"/>
  <path fill="#B6B6B6" opacity="1.000000" stroke="none"
    d="
M88.153641,438.931641
	C88.552940,437.263123 89.299217,435.645966 90.387085,433.992004
	C89.986000,435.631134 89.243309,437.307098 88.153641,438.931641
z"/>
  <path fill="#B6B6B6" opacity="1.000000" stroke="none"
    d="
M83.484619,508.026184
	C83.024902,506.610931 82.915634,505.164795 82.997704,503.322601
	C83.404381,504.616119 83.619720,506.305725 83.484619,508.026184
z"/>
  <path fill="#B6B6B6" opacity="1.000000" stroke="none"
    d="
M80.826706,498.012756
	C80.795845,497.543762 80.764984,497.074768 80.888893,496.288757
	C81.843697,497.565094 82.643730,499.158417 83.133575,500.895416
	C82.547729,500.895142 82.272087,500.751251 81.943939,500.067261
	C81.536530,499.022369 81.181618,498.517578 80.826706,498.012756
z"/>
  <path fill="#B6B6B6" opacity="1.000000" stroke="none"
    d="
M80.705849,468.061462
	C80.433723,466.663361 80.463165,465.129944 80.732941,463.297791
	C80.984657,464.641418 80.996033,466.283783 80.705849,468.061462
z"/>
  <path fill="#9C9C9C" opacity="1.000000" stroke="none"
    d="
M172.828522,61.988998
	C171.922623,60.635887 171.198898,58.955570 170.697952,56.983826
	C171.617386,58.348862 172.314041,60.005325 172.828522,61.988998
z"/>
  <path fill="#9C9C9C" opacity="1.000000" stroke="none"
    d="
M176.057495,74.823326
	C175.389328,74.197075 174.928665,73.237709 174.742981,72.139694
	C175.433609,72.830765 175.849304,73.660492 176.057495,74.823326
z"/>
  <path fill="#B6B6B6" opacity="1.000000" stroke="none"
    d="
M83.975296,393.691895
	C83.479454,393.464813 83.036377,392.868225 82.414734,392.045898
	C82.154747,391.399994 82.073318,390.979858 82.044464,390.242615
	C82.740715,391.057831 83.384384,392.190155 83.975296,393.691895
z"/>
  <path fill="#B6B6B6" opacity="1.000000" stroke="none"
    d="
M81.140617,492.827698
	C80.657959,492.140228 80.406540,491.275299 80.322083,490.093323
	C80.783318,490.734253 81.077583,491.692230 81.140617,492.827698
z"/>
  <path fill="#B6B6B6" opacity="1.000000" stroke="none"
    d="
M91.856613,432.230499
	C91.786346,431.457703 92.016121,430.727539 92.570007,429.986481
	C92.648293,430.741455 92.402473,431.507263 91.856613,432.230499
z"/>
  <path fill="#ACACAC" opacity="1.000000" stroke="none"
    d="
M179.849487,89.453674
	C179.365173,89.236145 178.782089,88.668991 178.278656,87.791084
	C178.822433,88.021568 179.286575,88.562805 179.849487,89.453674
z"/>
  <path fill="#B6B6B6" opacity="1.000000" stroke="none"
    d="
M54.013954,507.989655
	C54.604279,508.037811 54.902428,508.132111 55.126961,508.485535
	C54.739330,509.015259 54.425308,509.285828 54.111282,509.556396
	C53.981441,509.049500 53.851608,508.542664 54.013954,507.989655
z"/>
  <path fill="#9C9C9C" opacity="1.000000" stroke="none"
    d="
M176.741150,79.085464
	C176.242661,78.626129 175.963669,77.879028 175.946442,77.074722
	C176.459030,77.610916 176.709839,78.204300 176.741150,79.085464
z"/>
  <path fill="#ACACAC" opacity="1.000000" stroke="none"
    d="
M178.214874,83.804100
	C177.817383,83.990929 177.600555,83.978340 177.058533,83.944611
	C176.654709,83.484108 176.576050,83.044731 176.698349,82.331131
	C177.398056,82.572838 177.896805,83.088760 178.214874,83.804100
z"/>
  <path fill="#9C9C9C" opacity="1.000000" stroke="none"
    d="
M174.044556,65.836197
	C173.426270,65.489326 172.991394,64.832443 172.826675,64.090973
	C173.473877,64.512985 173.850906,65.019577 174.044556,65.836197
z"/>
  <path fill="#505050" opacity="1.000000" stroke="none"
    d="
M93.201096,409.597534
	C92.456383,409.361572 91.807487,408.791534 91.295967,407.870728
	C92.054527,408.101135 92.675713,408.682281 93.201096,409.597534
z"/>
  <path fill="#F4F4F4" opacity="1.000000" stroke="none"
    d="
M346.713715,71.250641
	C350.351135,89.039009 352.032440,106.522598 349.685059,124.224052
	C349.429626,126.150459 349.020416,128.056488 348.769745,129.477722
	C338.395508,128.223099 328.550537,127.037773 318.707092,125.839920
	C313.497894,125.205994 312.183044,120.713676 312.214203,117.085426
	C312.400696,95.373947 314.115509,73.805855 324.235626,54.014240
	C326.095215,50.377460 329.659210,47.612175 332.436462,44.444618
	C335.167023,47.618595 338.622345,50.426132 340.456360,54.053432
	C343.129150,59.339684 344.635559,65.215714 346.713715,71.250641
z"/>
  <path fill="#F5F5F5" opacity="1.000000" stroke="none"
    d="
M113.545265,89.286819
	C114.967781,75.529541 117.620155,62.578022 124.319611,50.766495
	C124.647690,50.188084 124.967010,49.601967 125.336067,49.049961
	C129.319321,43.092106 131.469238,42.940208 135.651627,48.651859
	C141.982315,57.297325 145.313797,67.337700 146.990555,77.660789
	C149.011307,90.101509 149.971970,102.732277 150.970123,115.314209
	C151.529449,122.364624 148.311752,125.183441 141.171570,125.959351
	C132.434082,126.908836 123.742180,128.277740 114.398529,129.551453
	C111.746040,116.437302 111.794785,103.116592 113.545265,89.286819
z"/>
  <path fill="#505050" opacity="1.000000" stroke="none"
    d="
M84.389297,443.909637
	C84.324730,445.106750 83.961807,446.386353 83.301018,447.832977
	C83.365753,446.664062 83.728355,445.328064 84.389297,443.909637
z"/>
  <path fill="#626262" opacity="1.000000" stroke="none"
    d="
M76.596680,377.204956
	C77.220848,377.804962 77.627113,378.609009 77.947670,379.764526
	C77.367561,379.213654 76.873169,378.311310 76.596680,377.204956
z"/>
  <path fill="#505050" opacity="1.000000" stroke="none"
    d="
M80.614609,498.175201
	C81.181618,498.517578 81.536530,499.022369 81.812332,499.843292
	C81.289658,499.552124 80.846085,498.944885 80.614609,498.175201
z"/>
  <path fill="#505050" opacity="1.000000" stroke="none"
    d="
M81.344223,453.843994
	C81.570137,454.407532 81.527969,455.020966 81.214584,455.815918
	C80.987633,455.296234 81.031883,454.595093 81.344223,453.843994
z"/>
  <path fill="#FDFDFD" opacity="1.000000" stroke="none"
    d="
M284.667389,538.559143
	C287.983032,554.486694 287.493530,570.096130 285.850372,585.713928
	C285.557251,588.500061 284.933655,591.333618 283.939178,593.945984
	C282.047241,598.916016 276.735901,599.814148 273.221008,595.816284
	C271.362610,593.702515 269.948364,591.205139 268.212250,588.975464
	C264.537445,584.255859 261.165375,579.220703 256.986389,574.989197
	C246.359818,564.229187 233.242828,562.085083 220.032074,569.436279
	C213.564606,573.035156 207.955765,578.193481 202.021713,582.728943
	C197.933914,585.853333 194.192657,589.499329 189.859650,592.215210
	C185.634399,594.863464 182.783112,593.456177 182.940918,588.540527
	C183.302872,577.265198 183.615967,565.876221 185.458435,554.784119
	C189.164429,532.473022 193.799515,510.313446 198.288864,488.139435
	C198.779495,485.716156 200.825073,483.607727 202.572876,480.632416
	C212.155731,493.309204 223.666412,495.770905 236.402206,489.670532
	C249.048874,483.612915 253.722275,472.870728 251.528656,458.795929
	C267.102570,483.400177 278.475800,509.657806 284.667389,538.559143
z"/>
  <path fill="#F16A65" opacity="1.000000" stroke="none"
    d="
M217.850616,454.545746
	C220.303528,453.644409 222.756439,452.743103 225.625885,452.242401
	C230.153702,457.789215 231.345139,463.211853 227.357086,468.967224
	C223.059250,475.169708 217.140869,476.274628 210.240158,474.236084
	C209.155441,473.915619 207.937622,474.045776 206.781342,473.967560
	C204.903061,469.203491 206.395721,465.039581 209.469391,461.291656
	C210.149719,462.418610 210.271347,463.437653 210.748856,464.246582
	C213.005554,468.069458 216.324860,469.191132 219.188370,467.207428
	C222.364349,465.007294 222.758316,461.198639 220.171570,457.683838
	C219.400406,456.635986 218.624405,455.591675 217.850616,454.545746
z"/>
  <path fill="#E21F26" opacity="1.000000" stroke="none"
    d="
M239.990173,454.002136
	C245.677322,457.613983 248.007095,463.699005 246.378113,470.686554
	C243.870499,481.443024 233.391190,488.519379 221.516464,486.914001
	C223.222702,485.306030 225.020966,484.132812 226.877121,483.059692
	C233.948486,478.971313 239.137390,473.498993 239.816376,464.923248
	C240.103165,461.300995 239.945709,457.643585 239.990173,454.002136
z"/>
  <path fill="#EB2A30" opacity="1.000000" stroke="none"
    d="
M239.765900,453.727478
	C239.945709,457.643585 240.103165,461.300995 239.816376,464.923248
	C239.137390,473.498993 233.948486,478.971313 226.877121,483.059692
	C225.020966,484.132812 223.222702,485.306030 221.199219,486.703064
	C218.110245,485.845917 215.219910,484.719025 212.330795,482.976013
	C213.176376,481.952057 214.043335,481.150146 214.861618,481.197113
	C223.512863,481.693146 231.724442,477.024109 233.686325,468.804993
	C234.971054,463.422729 233.998291,457.501617 234.036621,451.821838
	C235.871628,452.365509 237.706635,452.909149 239.765900,453.727478
z"/>
  <path fill="#E9383B" opacity="1.000000" stroke="none"
    d="
M233.725693,451.623779
	C233.998291,457.501617 234.971054,463.422729 233.686325,468.804993
	C231.724442,477.024109 223.512863,481.693146 214.861618,481.197113
	C214.043335,481.150146 213.176376,481.952057 212.162689,482.671631
	C210.591293,481.246826 209.189240,479.510315 208.159653,477.437561
	C219.158279,480.797668 228.066940,476.250122 231.498383,467.134491
	C233.722183,461.226990 231.914169,456.343781 228.992935,451.454498
	C230.466873,451.444916 231.940811,451.435333 233.725693,451.623779
z"/>
  <path fill="#EA4848" opacity="1.000000" stroke="none"
    d="
M228.689362,451.359680
	C231.914169,456.343781 233.722183,461.226990 231.498383,467.134491
	C228.066940,476.250122 219.158279,480.797668 208.119812,477.088440
	C207.369797,476.265686 207.032074,475.455811 206.737854,474.306763
	C207.937622,474.045776 209.155441,473.915619 210.240158,474.236084
	C217.140869,476.274628 223.059250,475.169708 227.357086,468.967224
	C231.345139,463.211853 230.153702,457.789215 225.999481,452.276886
	C226.766312,451.695465 227.576050,451.480164 228.689362,451.359680
z"/>
  <path fill="#E7E7E7" opacity="1.000000" stroke="none"
    d="
M177.753693,523.184937
	C178.762192,518.027527 180.384155,513.683533 184.269485,510.663269
	C184.830093,510.817749 185.390701,510.972260 185.951324,511.126770
	C184.606323,518.771179 183.261337,526.415588 181.916336,534.059998
	C181.299042,534.106262 180.681747,534.152527 180.064453,534.198853
	C179.280563,530.671082 178.496674,527.143372 177.753693,523.184937
z"/>
  <path fill="#F9B5A4" opacity="1.000000" stroke="none"
    d="
M217.510681,454.643097
	C218.624405,455.591675 219.400406,456.635986 220.171570,457.683838
	C222.758316,461.198639 222.364349,465.007294 219.188370,467.207428
	C216.324860,469.191132 213.005554,468.069458 210.748856,464.246582
	C210.271347,463.437653 210.149719,462.418610 209.786987,461.105591
	C212.196808,458.723328 214.683762,456.731873 217.510681,454.643097
z"/>
  <path fill="#090909" opacity="1.000000" stroke="none"
    d="
M217.173126,340.895081
	C195.669067,339.293976 177.571472,331.839386 164.846436,314.248718
	C149.830078,293.490631 153.900864,265.700348 171.237839,248.000687
	C191.864212,226.942841 217.175339,220.026001 246.041260,224.447693
	C265.409271,227.414459 281.701477,235.829117 294.385864,250.807678
	C318.189636,278.916809 307.750580,320.361511 273.593201,334.334290
	C262.651642,338.810181 251.496933,341.383942 239.626434,340.957001
	C232.309677,340.693848 224.975922,340.903290 217.173126,340.895081
M248.863983,243.486237
	C246.738068,243.088089 244.624680,242.598099 242.484299,242.305939
	C220.435745,239.296371 200.650711,244.157486 184.905121,260.469727
	C167.044998,278.972595 171.675644,304.356171 194.527725,316.211639
	C204.709946,321.494049 215.542725,322.906158 226.895706,322.683563
	C239.516617,322.436096 252.097687,323.301788 264.241119,318.319489
	C291.865479,306.985626 297.394165,278.226868 275.686523,257.827209
	C268.235504,250.825119 259.322937,246.585129 248.863983,243.486237
z"/>
  <path fill="#F7F7F7" opacity="1.000000" stroke="none"
    d="
M249.265869,243.579742
	C259.322937,246.585129 268.235504,250.825119 275.686523,257.827209
	C297.394165,278.226868 291.865479,306.985626 264.241119,318.319489
	C252.097687,323.301788 239.516617,322.436096 226.895706,322.683563
	C215.542725,322.906158 204.709946,321.494049 194.527725,316.211639
	C171.675644,304.356171 167.044998,278.972595 184.905121,260.469727
	C200.650711,244.157486 220.435745,239.296371 242.484299,242.305939
	C244.624680,242.598099 246.738068,243.088089 249.265869,243.579742
M215.929169,269.461121
	C212.866943,274.500000 213.005280,278.213623 217.885361,281.533173
	C222.707077,284.812988 224.323486,288.051453 222.631241,293.867249
	C221.097626,299.137817 224.643890,302.876923 230.113647,303.217468
	C237.223434,303.660065 240.553314,300.322723 239.261734,293.231262
	C238.356491,288.260956 238.673706,284.395416 243.843781,282.114655
	C244.840103,281.675140 246.108597,280.619324 246.248154,279.696136
	C246.714813,276.609406 247.945084,272.656799 246.567413,270.550079
	C245.205322,268.467194 241.091278,267.946442 238.064728,267.306610
	C236.857285,267.051361 235.371307,268.605194 233.936417,268.813110
	C232.033310,269.088806 229.788010,269.449341 228.163483,268.719299
	C224.105011,266.895447 220.314651,265.927124 215.929169,269.461121
z"/>
  <path fill="#121212" opacity="1.000000" stroke="none"
    d="
M216.173950,269.151733
	C220.314651,265.927124 224.105011,266.895447 228.163483,268.719299
	C229.788010,269.449341 232.033310,269.088806 233.936417,268.813110
	C235.371307,268.605194 236.857285,267.051361 238.064728,267.306610
	C241.091278,267.946442 245.205322,268.467194 246.567413,270.550079
	C247.945084,272.656799 246.714813,276.609406 246.248154,279.696136
	C246.108597,280.619324 244.840103,281.675140 243.843781,282.114655
	C238.673706,284.395416 238.356491,288.260956 239.261734,293.231262
	C240.553314,300.322723 237.223434,303.660065 230.113647,303.217468
	C224.643890,302.876923 221.097626,299.137817 222.631241,293.867249
	C224.323486,288.051453 222.707077,284.812988 217.885361,281.533173
	C213.005280,278.213623 212.866943,274.500000 216.173950,269.151733
z"/>
</svg>