<svg xmlns="http://www.w3.org/2000/svg" viewBox="0 0 270.35 53.43" id="logo">
    <defs>
        <clipPath id="a" transform="translate(-.73)">
            <path fill="none" d="M0 0h271.81v53.43H0z"/>
        </clipPath>
    </defs>
    <g data-name="Layer 2">
        <g clip-path="url(#a)" data-name="Layer 1">
            <path d="M7.46 45.54v-20h7.35a13.73 13.73 0 013.08.32 6.77 6.77 0 012.49 1.07 5.27 5.27 0 011.69 2 6.85 6.85 0 01.62 3.05 6.85 6.85 0 01-.64 3 5.81 5.81 0 01-1.72 2.1 7.2 7.2 0 01-2.5 1.22 11.06 11.06 0 01-3 .4h-2.85v6.84zm4.52-10.38h2.52q3.68 0 3.67-3.19a2.58 2.58 0 00-.9-2.26 4.72 4.72 0 00-2.74-.65h-2.55zM25.18 45.54v-20h5.16l3.34 9 1.2 3.5H35l1.19-3.5 3.25-9h5.07v20H40V38.2q0-.73.06-1.62c.05-.6.1-1.2.17-1.8s.14-1.2.2-1.79.13-1.12.2-1.61h-.13L38.82 36l-3.07 7.77h-1.82L30.84 36l-1.57-4.62h-.15c.07.49.13 1 .2 1.61s.14 1.18.19 1.79.11 1.2.15 1.79.07 1.13.07 1.63v7.34zM47.41 35.66a11.88 11.88 0 01.77-4.44 10.18 10.18 0 012.09-3.31 8.72 8.72 0 013-2.06 9.67 9.67 0 013.67-.71 7.25 7.25 0 013.4.79 9.86 9.86 0 012.52 1.83l-2.47 2.81a7.21 7.21 0 00-1.55-1.11 4 4 0 00-1.84-.4 4.43 4.43 0 00-2 .44 4.83 4.83 0 00-1.58 1.28 6.14 6.14 0 00-1.06 2 8.71 8.71 0 00-.39 2.7 7.63 7.63 0 001.33 4.8A4.25 4.25 0 0056.9 42a4.46 4.46 0 002.15-.49 6 6 0 001.66-1.28L63.2 43a8.49 8.49 0 01-2.87 2.21 8.34 8.34 0 01-3.49.74 10.06 10.06 0 01-3.65-.66 8.5 8.5 0 01-3-2 9.22 9.22 0 01-2-3.21 12.06 12.06 0 01-.78-4.42zM0 14.62h69.39L35.74 0 0 14.62zM0 16.82h69.39v3.13H0zM0 50.3h69.39v3.13H0zM77.27 37.16V44h-3.25V25.53h7.07a7.2 7.2 0 014.92 1.61 5.45 5.45 0 011.82 4.27 5.26 5.26 0 01-1.79 4.24 7.46 7.46 0 01-5 1.51zm0-2.59h3.86a3.78 3.78 0 002.61-.81 3 3 0 00.9-2.33 3.19 3.19 0 00-.95-2.43 3.52 3.52 0 00-2.51-.92h-3.91zM98.66 42.67a4.78 4.78 0 01-3.86 1.6A4.29 4.29 0 0191.41 43a5.58 5.58 0 01-1.14-3.82v-8.9h3.08v8.86c0 1.74.72 2.61 2.17 2.61a3.05 3.05 0 003-1.61v-9.86h3.08V44h-2.87zM116.84 37.29a8.27 8.27 0 01-1.43 5.09 4.65 4.65 0 01-3.93 1.89 4.49 4.49 0 01-3.76-1.74l-.15 1.47h-2.79V24.51h3.08v7.09a4.47 4.47 0 013.59-1.6 4.71 4.71 0 013.95 1.87 8.35 8.35 0 011.44 5.22zm-3.09-.29a5.86 5.86 0 00-.78-3.35 2.62 2.62 0 00-2.29-1.12 2.86 2.86 0 00-2.82 1.75V40a2.89 2.89 0 002.85 1.79 2.6 2.6 0 002.23-1.07 5.65 5.65 0 00.81-3.27zM123.88 25.53l5.39 14.17 5.31-14.17h4.16V44h-3.2v-6.08l.31-8.15-5.5 14.23h-2.3l-5.45-14.23.32 8.14V44h-3.2V25.53zM148.27 44.27a6.38 6.38 0 01-4.75-1.85 6.67 6.67 0 01-1.82-4.92v-.38a8.18 8.18 0 01.79-3.67 6 6 0 012.23-2.52 5.8 5.8 0 013.2-.91 5.39 5.39 0 014.33 1.79 7.6 7.6 0 011.53 5.07v1.24h-9a4.14 4.14 0 001.13 2.7 3.42 3.42 0 002.51 1 4.18 4.18 0 003.45-1.72l1.67 1.59a5.55 5.55 0 01-2.21 1.91 6.88 6.88 0 01-3.06.67zm-.37-11.77a2.63 2.63 0 00-2.05.89 4.58 4.58 0 00-1 2.47h5.88v-.22a3.79 3.79 0 00-.83-2.35 2.57 2.57 0 00-2.04-.79zM155.56 37a8.16 8.16 0 011.47-5 4.73 4.73 0 014-1.93 4.47 4.47 0 013.53 1.53v-7h3.08V44h-2.79l-.15-1.42a4.55 4.55 0 01-3.7 1.68 4.7 4.7 0 01-3.9-1.94 8.52 8.52 0 01-1.54-5.32zm3.08.27a5.69 5.69 0 00.81 3.27 2.62 2.62 0 002.29 1.17 2.93 2.93 0 002.77-1.68V34.2a2.87 2.87 0 00-2.74-1.65 2.64 2.64 0 00-2.31 1.19 6.28 6.28 0 00-.82 3.57zM191.69 38a6.71 6.71 0 01-2.18 4.61 7.43 7.43 0 01-5.07 1.66 7.19 7.19 0 01-3.89-1.05 6.89 6.89 0 01-2.6-3 10.78 10.78 0 01-1-4.48V34a10.78 10.78 0 01.93-4.61 6.91 6.91 0 012.66-3.07 7.39 7.39 0 014-1.08 7.18 7.18 0 014.93 1.65 6.94 6.94 0 012.17 4.69h-3.2a4.57 4.57 0 00-1.16-2.87 3.84 3.84 0 00-2.74-.88 3.76 3.76 0 00-3.22 1.53 7.67 7.67 0 00-1.05 4.53v1.64a8.06 8.06 0 001 4.57 3.55 3.55 0 003.14 1.58 4.12 4.12 0 002.84-.85 4.42 4.42 0 001.24-2.83zM200.27 44.27a6.4 6.4 0 01-4.76-1.85 6.71 6.71 0 01-1.82-4.92v-.38a8.18 8.18 0 01.8-3.67 6.06 6.06 0 012.22-2.52 5.85 5.85 0 013.2-.91 5.41 5.41 0 014.36 1.79 7.6 7.6 0 011.53 5.07v1.24h-9a4.14 4.14 0 001.14 2.7 3.41 3.41 0 002.51 1 4.19 4.19 0 003.45-1.72l1.66 1.59a5.52 5.52 0 01-2.2 1.91 6.94 6.94 0 01-3.09.67zm-.37-11.77a2.6 2.6 0 00-2 .89 4.66 4.66 0 00-1 2.47h5.88v-.22a3.79 3.79 0 00-.82-2.35 2.59 2.59 0 00-2.02-.79zM211.07 30.28l.09 1.58a5 5 0 014-1.84q4.29 0 4.37 4.92V44h-3.09v-8.9a2.8 2.8 0 00-.56-1.93 2.38 2.38 0 00-1.85-.63 3 3 0 00-2.76 1.7V44h-3.1V30.28zM226.54 26.94v3.34h2.42v2.28h-2.42v7.67a1.69 1.69 0 00.31 1.14 1.46 1.46 0 001.11.35 5.13 5.13 0 001.08-.13V44a7.77 7.77 0 01-2 .29q-3.56 0-3.56-3.92v-7.81h-2.26v-2.28h2.26v-3.34zM238.51 33.1a7.47 7.47 0 00-1.24-.1 2.83 2.83 0 00-2.85 1.63V44h-3.15V30.28h3l.07 1.53a3.49 3.49 0 013.1-1.79 2.85 2.85 0 011.09.18zM248.27 44a4.93 4.93 0 01-.35-1.28 4.78 4.78 0 01-3.61 1.54 4.86 4.86 0 01-3.37-1.18 3.76 3.76 0 01-1.31-2.92 3.88 3.88 0 011.64-3.36 7.86 7.86 0 014.67-1.18h1.89v-.9a2.16 2.16 0 00-2.41-2.35 2.72 2.72 0 00-1.73.53 1.63 1.63 0 00-.67 1.34h-3.09a3.41 3.41 0 01.75-2.11 5 5 0 012-1.55 7.2 7.2 0 012.87-.56 5.77 5.77 0 013.85 1.22 4.28 4.28 0 011.47 3.41v6.19a7.14 7.14 0 00.52 3V44zm-3.39-2.22a3.62 3.62 0 001.73-.44 3.08 3.08 0 001.21-1.19v-2.58h-1.67a4.5 4.5 0 00-2.57.59 1.93 1.93 0 00-.87 1.69 1.84 1.84 0 00.59 1.42 2.3 2.3 0 001.59.52zM257.43 44h-3.09V24.51h3.09zM259.85 30a5.75 5.75 0 01.69-2.77 5.12 5.12 0 011.92-2 5.08 5.08 0 015.28 0 5.12 5.12 0 011.92 2 5.93 5.93 0 010 5.55 5.23 5.23 0 01-1.91 2 4.94 4.94 0 01-2.65.75 5 5 0 01-2.64-.74 5.28 5.28 0 01-1.92-2 5.76 5.76 0 01-.69-2.79zm9.6 0a4.81 4.81 0 00-.56-2.28 4.26 4.26 0 00-1.57-1.72 4.1 4.1 0 00-2.22-.63 4.25 4.25 0 00-2.19.6 4.33 4.33 0 00-1.58 1.68 4.73 4.73 0 00-.58 2.32 4.83 4.83 0 00.57 2.32 4.36 4.36 0 001.59 1.71 4.17 4.17 0 004.36 0 4.28 4.28 0 001.58-1.69 4.81 4.81 0 00.6-2.31zm-5.41.56V33h-1.12v-6.27H265a2.78 2.78 0 011.77.5 1.7 1.7 0 01.63 1.42 1.44 1.44 0 01-.88 1.33 1.33 1.33 0 01.67.63 2.33 2.33 0 01.19 1 8.33 8.33 0 000 .86 1.18 1.18 0 00.1.42V33h-1.15a6.09 6.09 0 01-.1-1.44 1.15 1.15 0 00-.24-.81 1.12 1.12 0 00-.81-.25zm0-1h1.05a1.45 1.45 0 00.86-.23.71.71 0 00.34-.63.88.88 0 00-.26-.73 1.56 1.56 0 00-.95-.23h-1z"/>
        </g>
    </g>
</svg>