<?xml version="1.0" encoding="UTF-8"?>
<svg version="1.1" viewBox="0 0 1478 2048" width="1280" height="1280" xmlns="http://www.w3.org/2000/svg">
<path transform="translate(0)" d="m0 0h1478v2048h-1478z" fill="#FEFEFE"/>
<path transform="translate(411,47)" d="m0 0h24l21 5 17 8 14 10 12 11 10 10 12 16 14 24 11 24 9 24 8 27 6 25 4 21 3 19 3 25 6-2 16-9 29-13 28-10 30-8 26-4 27-2h16l30 2 32 5 19 5 30 10 26 11 20 10 13 8 2-15 6-39 8-36 6-20 9-27 11-24 10-19 12-18 9-11 9-10 12-11 17-11 15-7 19-4h24l18 4 16 7 12 8 10 8 17 17 13 18 12 22 9 20 7 19 9 30 7 33 5 33 3 29 1 15v79l-3 30-4 29-4 20 16 15 17 17 8 7 18 18 9 11 10 12 14 21 9 16 8 16 5 17 7 19 10 34 5 27 3 24 1 14v42l-4 35-6 29-8 27-9 22-12 25-13 22-5 7 2 6 14 29 12 31 8 26 7 29 6 36 2 21 1 19v37l-3 34-4 25-5 24-8 27-8 21-7 16-11 21-15 24 2 5 7 10 8 15 11 29 8 29 6 31 3 22 2 24v57l-4 33-6 27-3 9-3 1h-89l-2-1v-11l2-13 6-21 3-19 1-9v-48l-3-31-4-22-7-27-6-16-8-16-12-21-4-11-3-17v-31l4-13 6-10 11-16 9-15 11-23 10-31 6-26 3-22 1-16v-33l-2-27-4-27-10-39-9-25-8-18-13-25-12-19-4-10-1-5v-13l3-11 4-8 9-10 13-17 8-13 8-14 11-27 7-25 4-21 2-20v-27l-2-22-5-27-6-21-8-22-12-25-8-14-11-16-8-10-11-13-13-13-8-7-17-13-18-11-17-9-15-6-23-7-14-3-17-2h-28l-18 2h-18l-10-3-6-5-16-32-8-14-11-15-8-10-9-10-7-7-14-11-12-9-16-10-19-10-13-6-20-8-17-5-24-5-15-2h-33l-25 4-24 6-22 8-20 9-20 11-19 13-10 8-11 9-13 13-13 17-10 15-10 18-8 18-9 10-6 3h-21l-19-2h-29l-20 3-14 3-27 9-21 10-18 11-16 12-15 13-15 15-11 14-12 17-10 17-8 16-10 25-7 24-5 24-3 25v31l4 30 5 21 9 27 12 25 10 16 7 9 16 15 6 12 3 9v15l-6 16-13 21-14 27-8 20-8 25-7 27-4 23-3 31v35l3 32 5 26 9 30 6 15 10 21 11 17 12 16 8 13 4 13v19l-4 13-12 22-9 15-8 16-7 19-7 26-5 30-2 23v42l3 26 5 22 3 12 1 9v10l-3 1h-81l-11-1-5-21-5-30-2-22v-52l2-25 5-34 5-23 7-25 8-21 11-23 9-12-1-5-14-22-10-19-11-25-10-30-6-24-5-29-3-27-1-17v-35l2-30 4-29 5-26 10-36 9-25 10-23 10-21-1-7-10-14-14-26-7-15-8-20-8-26-6-29-3-25v-66l3-27 7-33 9-29 10-25 8-16 9-17 11-17 11-15 11-13 7-8 56-56-1-6-2-5-4-26-3-32-1-17v-69l3-39 5-35 6-29 8-30 8-23 12-27 12-21 12-16 11-12 7-7 13-10 16-9 11-4z" fill="#010000"/>
<path transform="translate(856,1181)" d="m0 0h13l10 4 6 7 4 9 6 29 5 22 8 16 4-13 7-23 5-12 6-9 9-8 7-3 5-1h10l8 4 5 8v11l-6 17-6 15-4 16v22l8 38 1 9v11l-3 16-8 16-9 9-10 8-6 7-4 8-2 7-1 12v51l-2 17-4 13-11 20-5 15-3 17v21l3 17 6 16 11 28 13 38 10 37 7 33 5 33 3 28 1 18v49l-2 24-4 22-6 18-6 10-7 8-10 6-13 4h-17l-7-4-10-9-11-15-11-16-12-17-9-11-9-10-10-9-13-8-14-5-5-1h-26l-16 4-18 8-18 11-16 12-16 13-17 14-20 15-16 9-13 4h-11l-10-3-7-6-4-8-2-9v-39l2-25-6 8-2 1h-8l-13-4-8-7-4-7v-9l6-12 8-10 9-11 9-14 5-12 2-11v-17l-4-20-6-21-2-13v-16l2-12 8-16 9-13 12-16 13-21 8-17 9-27 4-20 4-39 3-39 3-63v-98l-3-35-3-13 5 2 16 11 13 10 11 9 14 12 17 16 33 33 7 8 12 13 9 11 12 14 8 10 10 13 12 16 13 18 18 27 12 19 6 8 6 4 9 1 12-3 10-6 8-11 4-11v-33l-3-17-4-11-5-7-6-3-15-4-16-9-16-8-4-1h-12l-23 5-8-1-7-6-4-10v-10l4-8 9-8 13-6 13-4 10-1-9-11-8-10-10-15-8-16-7-15-9-27-1-5v-13l3-8 8-8 9-4 6-1 8 3 7 9 15 31 8 12 8 9 2 1-6-21-4-20-1-8v-33l3-10 4-5z" fill="#020101"/>
<path transform="translate(735,724)" d="m0 0h30l24 2 27 4 20 5 27 9 29 14 18 11 16 12 11 9 15 14 12 14 10 14 9 15 7 14 7 19 5 20 2 14v34l-3 20-6 19-6 15-11 19-9 12-11 13-15 15-11 9-16 11-22 12-26 10-13 4-21 5-19 2h-117l-24-3-27-6-28-10-16-8-14-8-14-10-10-8-10-9-10-10-11-14-10-15-10-21-6-18-4-19-1-9v-31l2-15 5-20 8-21 10-19 8-12 10-13 12-13 13-13 11-9 15-11 15-9 14-8 21-9 16-6 22-6 29-5z" fill="#FEFEFE"/>
<path transform="translate(816,1496)" d="m0 0 5 1 13 21 10 18 14 27 15 31 17 40 10 27 12 36 8 28 7 30 5 28 3 28v60l-2 31-3 23-5 17-4 6-5 4-4 1h-14l-6-4-11-14-10-15-12-17-9-11-12-14-8-7-14-10-16-8-12-4-12-2h-20l-16 3-15 5-16 8-18 12-14 11-15 13-14 13-22 18-14 7-4 1h-7l-5-6-3-13v-29l3-32 6-45 11-66 20-100 13-61 2-6 11-7 4-2 7 11 10 10 13 8 18 6 6 1h25l17-4 16-7 13-9 7-6 9-11 8-14 5-15 2-10v-20l-3-11z" fill="#FEFEFE"/>
<path transform="translate(735,724)" d="m0 0h30l24 2 27 4 20 5 27 9 29 14 18 11 16 12 11 9 15 14 12 14 10 14 9 15 7 14 7 19 5 20 2 14v34l-3 20-6 19-6 15-11 19-9 12-11 13-15 15-11 9-16 11-22 12-26 10-13 4-21 5-19 2h-117l-24-3-27-6-28-10-16-8-14-8-14-10-10-8-10-9-10-10-11-14-10-15-10-21-6-18-4-19-1-9v-31l2-15 5-20 8-21 10-19 8-12 10-13 12-13 13-13 11-9 15-11 15-9 14-8 21-9 16-6 22-6 29-5zm0 63-20 2-20 4-29 10-17 8-17 10-17 13-15 14-9 11-9 14-9 19-6 20-2 14v11l3 16 6 18 7 14 8 11 11 12 10 9 18 12 16 8 15 6 25 6 15 2 14 1h89l21-3 25-6 26-11 15-9 10-8 10-9 8-8 12-18 6-13 5-16 2-12v-15l-2-14-5-16-5-12-7-13-12-16-12-13-8-7-16-12-14-8-15-8-28-10-21-5-14-2-13-1z" fill="#010101"/>
<path transform="translate(1081,140)" d="m0 0h5l5 4 9 11 11 19 11 28 6 21 7 32 4 27 3 42v49l-3 47-1 4-6-1-10-4-22-4-44-6-27-2-9-15-2-5v-40l2-34 5-38 8-38 5-20 11-29 11-23 7-10 11-13z" fill="#FEFEFE"/>
<path transform="translate(423,139)" d="m0 0 4 2 10 10 10 14 11 22 9 24 7 25 6 29 5 30 3 31 1 16v45l-6 14-5 6-29 2-31 4-35 6-11 4h-3l-3-28-1-27v-41l2-36 5-35 8-37 6-19 8-21 8-16 8-12 8-9z" fill="#FEFEFE"/>
<path transform="translate(745,1472)" d="m0 0h9l16 3 14 7 10 9 6 10 3 9 1 6v15l-4 14-8 16-9 10-9 8-15 8-12 4-10 2h-15l-13-3-16-8-11-10-6-10-5-12-2-11v-8l2-10h2l1-5 4-8 8-10 11-9 17-9 12-5 8-2z" fill="red"/>
<path transform="translate(436,735)" d="m0 0h16l15 4 12 7 10 9 7 9 5 11 2 8v21l-4 14-6 12-7 9-14 14-11 7-12 4h-15l-14-3-11-4-11-7-9-10-8-14-2-9v-21l4-14 8-16 6-9 10-10 14-8 9-3z" fill="#010101"/>
<path transform="translate(1055,735)" d="m0 0h15l16 4 11 6 10 8 7 9 8 15 5 14 1 6v20l-4 13-7 11-7 8-14 9-16 5-5 1h-16l-13-4-11-7-17-17-8-14-5-14-1-5v-20l4-13 6-10 9-10 11-8 11-5z" fill="#010101"/>
<path transform="translate(717,869)" d="m0 0h9l12 4 13 8 5-1 8-6 9-4 12-1 10 3 6 4 6 9 1 2v15l-5 10-8 7-11 8-6 4-1 6 3 17v19l-5 8-9 6-8 2h-10l-11-2-8-6-4-6-1-3v-15l3-19v-7l-16-10-11-11-3-5-1-4v-13l5-10 6-5z" fill="#020101"/>
<path transform="translate(717,1479)" d="m0 0 2 1-2 3h2v4 2l6 1 2 1 3 13-1 10-5 10h-2v2h-2v2h-2v2l-5 2-3 2-9 2v-2l-5 1-9-5-5-4v-2h-2l-2-2-6 3 1-7 5-10 8-10 11-9 17-9z" fill="pink"/>
<path transform="translate(599,1667)" d="m0 0 4 1v14l-9 48-3 19-2 1-8-20-3-11v-15l5-15 8-14 6-7z" fill="white"/>
<path transform="translate(937,1063)" d="m0 0 2 1-11 9-15 10-19 10-26 10-13 4-21 5-19 2h-117l-9-1v-1h82l37-1 18-2 32-7 14-5 16-6 10-4 17-9 11-7z" fill="#553D3C"/>
</svg>
